<?xml version="1.0" standalone="no"?>
<!DOCTYPE svg PUBLIC "-//W3C//DTD SVG 20010904//EN"
 "http://www.w3.org/TR/2001/REC-SVG-20010904/DTD/svg10.dtd">
<svg version="1.0" xmlns="http://www.w3.org/2000/svg"
 width="519.000000pt" height="114.000000pt" viewBox="0 0 519.000000 114.000000"
 preserveAspectRatio="xMidYMid meet">

<g transform="translate(0.000000,114.000000) scale(0.100000,-0.100000)"
fill="#000000" stroke="none">
<path d="M450 1124 c-202 -43 -366 -197 -426 -399 -12 -41 -18 -92 -18 -160 1
-166 55 -288 180 -405 175 -163 423 -197 644 -87 87 43 194 150 237 237 59
118 63 150 63 507 l0 323 -307 -1 c-224 0 -326 -4 -373 -15z m440 -144 c24
-24 25 -38 4 -68 -15 -21 -20 -22 -195 -22 l-179 0 0 -135 0 -135 139 0 c114
0 143 -3 155 -16 22 -21 20 -50 -4 -74 -18 -18 -33 -20 -155 -20 l-135 0 0
-164 c0 -178 -5 -196 -55 -196 -55 0 -55 -2 -55 425 l0 394 22 15 c19 13 58
16 230 16 195 0 209 -1 228 -20z"/>
<path d="M3740 1122 c-105 -50 -122 -182 -34 -251 31 -24 111 -29 133 -8 11
10 14 10 18 0 3 -7 13 -13 24 -13 17 0 19 8 19 70 l0 70 -45 0 c-38 0 -45 -3
-45 -20 0 -15 7 -20 25 -20 35 0 32 -26 -5 -45 -43 -22 -68 -19 -101 14 -42
43 -37 112 10 148 25 19 78 16 100 -6 17 -17 22 -18 38 -6 17 13 17 15 -8 41
-28 27 -97 42 -129 26z"/>
<path d="M4000 991 l0 -141 25 0 c23 0 25 4 25 45 0 42 2 45 28 45 22 0 33 -9
54 -45 21 -34 34 -45 53 -45 31 0 31 1 -2 57 -23 40 -24 46 -10 54 23 13 40
71 28 100 -18 48 -47 63 -127 67 l-74 4 0 -141z m145 64 c9 -13 10 -28 4 -42
-7 -19 -16 -23 -54 -23 l-45 0 0 46 0 45 41 -3 c29 -2 46 -9 54 -23z"/>
<path d="M4300 1027 c0 -80 4 -108 17 -127 28 -41 45 -49 104 -50 49 0 59 4
85 31 28 29 29 34 32 140 l4 109 -26 0 -26 0 0 -94 c0 -79 -3 -97 -21 -120
-13 -17 -30 -26 -49 -26 -19 0 -36 9 -49 26 -18 23 -21 41 -21 120 0 94 0 94
-25 94 l-25 0 0 -103z"/>
<path d="M4640 990 l0 -140 25 0 c23 0 25 4 25 45 l0 45 49 0 c83 0 130 61
101 131 -18 42 -57 59 -135 59 l-65 0 0 -140z m150 64 c16 -42 -3 -64 -55 -64
l-45 0 0 45 0 45 45 0 c40 0 47 -3 55 -26z"/>
<path d="M4994 1116 c-69 -31 -99 -115 -66 -189 24 -53 62 -77 122 -77 105 0
167 110 116 207 -31 61 -109 88 -172 59z m111 -61 c19 -18 25 -35 25 -70 0
-110 -130 -133 -159 -28 -26 92 70 163 134 98z"/>
<path d="M1535 977 c-118 -39 -207 -117 -258 -225 -30 -63 -32 -73 -32 -182 0
-103 3 -121 26 -170 95 -199 306 -294 510 -230 35 11 86 36 112 56 42 30 48
39 45 66 -2 17 -12 37 -23 44 -18 12 -26 11 -55 -6 -122 -70 -134 -74 -205
-74 -147 0 -261 90 -300 239 -60 230 153 446 376 381 31 -8 74 -29 97 -46 64
-46 112 -37 112 21 0 34 -43 72 -120 108 -44 20 -73 26 -150 28 -59 2 -110 -2
-135 -10z"/>
<path d="M2195 724 c-86 -22 -155 -68 -155 -103 0 -47 47 -53 115 -15 115 65
255 7 255 -105 0 -30 -2 -33 -22 -26 -47 14 -224 18 -262 5 -125 -41 -165
-183 -77 -271 80 -80 249 -78 339 4 l22 20 0 -24 c0 -32 17 -49 50 -49 47 0
50 11 50 212 0 148 -3 197 -15 226 -34 81 -101 122 -209 127 -39 2 -80 2 -91
-1z m160 -327 c44 -11 50 -15 53 -40 6 -52 -62 -99 -163 -112 -93 -13 -162 38
-139 103 19 56 125 77 249 49z"/>
<path d="M2843 705 c-28 -14 -54 -32 -57 -40 -9 -23 -26 -18 -26 8 0 13 -5 28
-12 35 -15 15 -61 15 -76 0 -17 -17 -17 -519 0 -536 16 -16 63 -15 76 1 6 7
12 85 14 184 3 155 5 174 24 199 51 69 132 92 192 54 53 -33 62 -68 62 -250 0
-92 4 -170 10 -181 15 -26 75 -26 90 0 6 11 10 87 10 176 0 186 12 223 83 256
51 23 66 23 116 3 30 -12 45 -26 61 -58 18 -37 20 -62 20 -207 0 -115 4 -169
12 -177 15 -15 61 -15 76 0 17 17 17 366 0 421 -43 144 -241 185 -352 73 l-43
-42 -36 42 c-59 67 -156 83 -244 39z"/>
<path d="M3825 724 c-44 -11 -82 -28 -113 -52 -27 -20 -33 -30 -30 -55 4 -43
35 -47 106 -11 120 61 252 10 252 -99 0 -36 -2 -39 -22 -32 -13 4 -72 9 -133
12 -100 4 -114 2 -155 -19 -63 -32 -90 -77 -90 -148 0 -101 60 -158 174 -167
75 -6 159 15 196 50 l25 24 10 -31 c8 -26 16 -32 45 -34 55 -6 60 9 60 192 0
89 -5 181 -11 206 -24 107 -94 159 -221 165 -40 2 -82 2 -93 -1z m160 -327
c48 -12 50 -14 53 -49 3 -34 0 -38 -41 -63 -101 -58 -220 -56 -252 5 -20 38
-6 73 37 100 38 23 121 26 203 7z"/>
<path d="M4494 720 c-26 -10 -84 -76 -84 -95 0 -8 -4 -15 -10 -15 -5 0 -10 19
-10 43 0 49 -13 67 -50 67 -49 0 -50 -6 -50 -280 0 -274 1 -280 50 -280 43 0
50 16 50 119 1 254 52 351 186 351 33 0 56 5 64 14 18 22 8 59 -20 73 -28 14
-94 16 -126 3z"/>
<path d="M4865 724 c-86 -22 -155 -68 -155 -103 0 -47 47 -53 115 -15 115 65
255 7 255 -105 0 -30 -2 -33 -22 -26 -47 14 -224 18 -262 5 -125 -41 -165
-183 -77 -271 80 -80 249 -78 339 4 l22 20 0 -24 c0 -32 17 -49 50 -49 47 0
50 11 50 212 0 148 -3 197 -15 226 -34 81 -101 122 -209 127 -39 2 -80 2 -91
-1z m160 -327 c44 -11 50 -15 53 -40 6 -52 -62 -99 -163 -112 -93 -13 -162 38
-139 103 19 56 125 77 249 49z"/>
</g>
</svg>
